<?xml version="1.0" encoding="UTF-8" standalone="no"?>
<!-- Generator: Adobe Illustrator 12.0.1, SVG Export Plug-In . SVG Version: 6.00 Build 51448)  -->

<svg
   xmlns:dc="http://purl.org/dc/elements/1.1/"
   xmlns:cc="http://creativecommons.org/ns#"
   xmlns:rdf="http://www.w3.org/1999/02/22-rdf-syntax-ns#"
   xmlns:svg="http://www.w3.org/2000/svg"
   xmlns="http://www.w3.org/2000/svg"
   xmlns:sodipodi="http://sodipodi.sourceforge.net/DTD/sodipodi-0.dtd"
   xmlns:inkscape="http://www.inkscape.org/namespaces/inkscape"
   version="1.1"
   id="Layer_1"
   width="151.39999"
   height="36.299999"
   viewBox="0 0 151.39999 36.299999"
   xml:space="preserve"
   inkscape:version="0.91 r13725"
   sodipodi:docname="Carfaxlogo3.svg"><metadata
     id="metadata3457"><rdf:RDF><cc:Work
         rdf:about=""><dc:format>image/svg+xml</dc:format><dc:type
           rdf:resource="http://purl.org/dc/dcmitype/StillImage" /><dc:title></dc:title></cc:Work></rdf:RDF></metadata><defs
     id="defs3455" /><sodipodi:namedview
     pagecolor="#ffffff"
     bordercolor="#666666"
     borderopacity="1"
     objecttolerance="10"
     gridtolerance="10"
     guidetolerance="10"
     inkscape:pageopacity="0"
     inkscape:pageshadow="2"
     inkscape:window-width="1366"
     inkscape:window-height="705"
     id="namedview3453"
     showgrid="false"
     fit-margin-top="0"
     fit-margin-left="0"
     fit-margin-right="0"
     fit-margin-bottom="0"
     inkscape:zoom="3.255814"
     inkscape:cx="75.415852"
     inkscape:cy="18.213322"
     inkscape:window-x="-8"
     inkscape:window-y="-8"
     inkscape:window-maximized="1"
     inkscape:current-layer="Layer_1" /><g
     id="g3337"
     transform="translate(-21.2,-7.2)"><g
       id="g3339"><path
         d="m 166.8,32.8 c 0,1.2 -1,2.2 -2.2,2.2 L 24,35 c -1.2,0 -2.2,-1 -2.2,-2.2 l 0,-22.8 c 0,-1.2 1,-2.2 2.2,-2.2 l 140.6,0 c 1.2,0 2.2,1 2.2,2.2 l 0,22.8 0,0 z"
         id="path3341"
         inkscape:connector-curvature="0"
         style="fill:#ffffff" /><path
         d="m 24,7.2 c -1.6,0 -2.8,1.3 -2.8,2.8 l 0,22.8 c 0,1.5 1.3,2.8 2.8,2.8 l 140.6,0 c 1.6,0 2.8,-1.3 2.8,-2.8 l 0,-22.8 c 0,-1.5 -1.3,-2.8 -2.8,-2.8 l -140.6,0 0,0 z m -1.6,25.6 0,-22.8 c 0,-0.9 0.7,-1.6 1.6,-1.6 l 140.6,0 c 0.9,0 1.6,0.7 1.6,1.6 l 0,22.8 c 0,0.9 -0.7,1.6 -1.6,1.6 L 24,34.4 c -0.9,0 -1.6,-0.7 -1.6,-1.6 z"
         id="path3343"
         inkscape:connector-curvature="0"
         style="fill:#231f20" /></g><g
       id="g3345"><rect
         x="142.60001"
         y="9.8000002"
         width="22.1"
         height="23.1"
         id="rect3347"
         style="fill:#ffffff" /><path
         d="m 142.3,9.5 0,23.7 22.7,0 0,-23.7 -22.7,0 z m 22.1,0.6 c 0,0.6 0,21.9 0,22.5 -0.6,0 -20.9,0 -21.5,0 0,-0.6 0,-21.9 0,-22.5 0.6,0 20.9,0 21.5,0 z"
         id="path3349"
         inkscape:connector-curvature="0"
         style="fill:#231f20" /></g><g
       id="g3351"><rect
         x="47.700001"
         y="9.8000002"
         width="22.1"
         height="23.1"
         id="rect3353"
         style="fill:#231f20" /><path
         d="m 47.4,9.5 0,23.7 22.7,0 0,-23.7 -22.7,0 z m 22,0.6 c 0,0.6 0,21.9 0,22.5 -0.6,0 -20.9,0 -21.5,0 0,-0.6 0,-21.9 0,-22.5 0.7,0 21,0 21.5,0 z"
         id="path3355"
         inkscape:connector-curvature="0"
         style="fill:#231f20" /></g><g
       id="g3357"><rect
         x="71.300003"
         y="9.8000002"
         width="22.1"
         height="23.1"
         id="rect3359"
         style="fill:#231f20" /><path
         d="m 71,9.5 0,23.7 22.7,0 0,-23.7 -22.7,0 z m 22.1,0.6 c 0,0.6 0,21.9 0,22.5 -0.6,0 -20.9,0 -21.5,0 0,-0.6 0,-21.9 0,-22.5 0.6,0 20.9,0 21.5,0 z"
         id="path3361"
         inkscape:connector-curvature="0"
         style="fill:#231f20" /></g><g
       id="g3363"><rect
         x="95.199997"
         y="9.8000002"
         width="22.1"
         height="23.1"
         id="rect3365"
         style="fill:#231f20" /><path
         d="m 94.9,9.5 0,23.7 22.7,0 0,-23.7 -22.7,0 z m 22,0.6 c 0,0.6 0,21.9 0,22.5 -0.6,0 -20.9,0 -21.5,0 0,-0.6 0,-21.9 0,-22.5 0.6,0 20.9,0 21.5,0 z"
         id="path3367"
         inkscape:connector-curvature="0"
         style="fill:#231f20" /></g><g
       id="g3369"><rect
         x="119"
         y="9.8000002"
         width="22.1"
         height="23.1"
         id="rect3371"
         style="fill:#231f20" /><path
         d="m 118.7,9.5 0,23.7 22.7,0 0,-23.7 -22.7,0 z m 22,0.6 c 0,0.6 0,21.9 0,22.5 -0.6,0 -20.9,0 -21.5,0 0,-0.6 0,-21.9 0,-22.5 0.7,0 21,0 21.5,0 z"
         id="path3373"
         inkscape:connector-curvature="0"
         style="fill:#231f20" /></g><g
       id="g3375"><rect
         x="23.9"
         y="9.8000002"
         width="22.1"
         height="23.1"
         id="rect3377"
         style="fill:#231f20" /><path
         d="m 23.6,9.5 0,23.7 22.7,0 0,-23.7 -22.7,0 z m 22,0.6 c 0,0.6 0,21.9 0,22.5 -0.6,0 -20.9,0 -21.5,0 0,-0.6 0,-21.9 0,-22.5 0.7,0 20.9,0 21.5,0 z"
         id="path3379"
         inkscape:connector-curvature="0"
         style="fill:#231f20" /></g><path
       d="m 35.4,29.7 c -4.7,0 -7.2,-3.5 -7.2,-8.2 0,-5.1 3,-8.2 7.2,-8.2 3.9,0 5.4,1.7 6.5,4.7 l -4,1.6 c -0.6,-1.5 -1.1,-2.4 -2.6,-2.4 -1.8,0 -2.6,1.8 -2.6,4.4 0,2.4 0.8,4.4 2.7,4.4 1.4,0 2,-0.7 2.8,-2.2 l 3.7,2 c -1,1.9 -2.7,3.9 -6.5,3.9 z"
       id="path3381"
       inkscape:connector-curvature="0"
       style="fill:#ffffff" /><path
       d="m 60.1,23 -2.6,0 0.3,-1 c 0.6,-2 0.8,-2.9 1,-4 0.2,1.1 0.5,1.9 1,4 l 0.3,1 z m 6.7,6.3 -5.8,-15.9 -4.4,0 -5.7,15.8 4.7,0 0.9,-2.8 4.8,0 0.9,2.8 4.6,0 z"
       id="path3383"
       inkscape:connector-curvature="0"
       style="fill:#ffffff" /><path
       d="m 84.6,18.8 c 0,1.1 -0.6,1.8 -2,1.8 l -2.6,0 0,-3.5 2.6,0 c 1.5,0 2,0.7 2,1.7 z m 4.7,10.5 -3.2,-6 C 87.8,22.5 89,21 89,18.7 89,14.9 86.5,13.5 82.8,13.5 l -7.1,0 0,15.8 4.3,0 0,-5.3 1.8,0 2.6,5.3 4.9,0 z"
       id="path3385"
       inkscape:connector-curvature="0"
       style="fill:#ffffff" /><path
       d="m 104.3,17.2 0,2.2 5,0 0,3.7 -5,0 0,6.2 -4.4,0 0,-15.8 12.5,0 0,3.7 -8.1,0 z"
       id="path3387"
       inkscape:connector-curvature="0"
       style="fill:#ffffff" /><path
       d="m 131.2,23.1 -2.6,0 0.3,-1 c 0.6,-2 0.8,-2.9 1,-4 0.2,1.1 0.5,1.9 1,4 l 0.3,1 z m 6.6,6.3 -5.7,-15.8 -4.4,0 -5.7,15.8 4.7,0 0.9,-2.8 4.7,0 0.9,2.8 4.6,0 z"
       id="path3389"
       inkscape:connector-curvature="0"
       style="fill:#ffffff" /><g
       id="g3391"><path
         d="m 30,43.3 -2.1,-5 1.5,0 1.5,3.8 1.5,-3.8 1.4,0 -2.1,5 -1.7,0 z"
         id="path3393"
         inkscape:connector-curvature="0"
         style="fill:#231f20" /><path
         d="m 35.1,43.3 0,-5 4.3,0 0,1.1 -2.9,0 0,0.9 2.7,0 0,1 -2.7,0 0,1 3,0 0,1.1 -4.4,0 0,-0.1 z"
         id="path3395"
         inkscape:connector-curvature="0"
         style="fill:#231f20" /><path
         d="m 40.9,38.3 1.4,0 0,1.9 2.5,0 0,-1.9 1.4,0 0,5 -1.4,0 0,-2 -2.5,0 0,2 -1.4,0 0,-5 z"
         id="path3397"
         inkscape:connector-curvature="0"
         style="fill:#231f20" /><path
         d="m 48.1,43.3 0,-5 1.4,0 0,5 -1.4,0 z"
         id="path3399"
         inkscape:connector-curvature="0"
         style="fill:#231f20" /><path
         d="m 56.4,41.5 c 0,0.6 -0.2,1.1 -0.7,1.4 -0.4,0.3 -1,0.5 -1.8,0.5 -0.9,0 -1.6,-0.2 -2.1,-0.7 -0.5,-0.4 -0.7,-1.1 -0.7,-1.9 0,-0.8 0.2,-1.5 0.7,-1.9 0.5,-0.4 1.2,-0.7 2.2,-0.7 0.7,0 1.3,0.1 1.7,0.4 0.4,0.3 0.6,0.7 0.7,1.3 l -1.4,0 c 0,-0.2 -0.1,-0.4 -0.3,-0.5 -0.2,-0.1 -0.4,-0.2 -0.7,-0.2 -0.5,0 -0.8,0.1 -1,0.4 -0.2,0.3 -0.3,0.6 -0.3,1.2 0,0.5 0.1,0.9 0.3,1.2 0.2,0.3 0.5,0.4 1,0.4 0.3,0 0.6,-0.1 0.8,-0.2 0.2,-0.1 0.3,-0.3 0.3,-0.6 l 1.3,-0.1 0,0 z"
         id="path3401"
         inkscape:connector-curvature="0"
         style="fill:#231f20" /><path
         d="m 57.9,43.3 0,-5 1.4,0 0,3.9 2.6,0 0,1.1 -4,0 z"
         id="path3403"
         inkscape:connector-curvature="0"
         style="fill:#231f20" /><path
         d="m 63.3,43.3 0,-5 4.3,0 0,1.1 -2.9,0 0,0.9 2.7,0 0,1 -2.7,0 0,1 3,0 0,1.1 -4.4,0 0,-0.1 z"
         id="path3405"
         inkscape:connector-curvature="0"
         style="fill:#231f20" /><path
         d="m 73.2,38.3 1.4,0 0,1.9 2.5,0 0,-1.9 1.4,0 0,5 -1.4,0 0,-2 -2.5,0 0,2 -1.4,0 0,-5 z"
         id="path3407"
         inkscape:connector-curvature="0"
         style="fill:#231f20" /><path
         d="m 80.4,43.3 0,-5 1.4,0 0,5 -1.4,0 z"
         id="path3409"
         inkscape:connector-curvature="0"
         style="fill:#231f20" /><path
         d="m 83.4,41.6 1.4,0 0,0.1 c 0,0.2 0.1,0.4 0.2,0.5 0.2,0.1 0.4,0.2 0.8,0.2 0.3,0 0.5,0 0.7,-0.1 0.1,-0.1 0.2,-0.2 0.2,-0.4 0,-0.3 -0.3,-0.4 -1,-0.6 -0.1,0 -0.2,0 -0.3,-0.1 -0.7,-0.1 -1.2,-0.3 -1.4,-0.5 -0.3,-0.2 -0.4,-0.5 -0.4,-0.9 0,-0.5 0.2,-0.9 0.6,-1.2 0.4,-0.3 1,-0.4 1.7,-0.4 0.7,0 1.3,0.1 1.6,0.4 0.3,0.2 0.5,0.6 0.6,1.1 l -1.3,0 0,0 c 0,-0.2 -0.1,-0.3 -0.2,-0.4 -0.1,-0.1 -0.4,-0.1 -0.6,-0.1 -0.3,0 -0.5,0 -0.6,0.1 -0.4,0 -0.4,0.2 -0.4,0.3 0,0.2 0.3,0.4 1,0.5 0.1,0 0.2,0 0.3,0.1 0,0 0,0 0.1,0 0.7,0.1 1.2,0.3 1.5,0.5 0.1,0.1 0.2,0.3 0.3,0.4 0.1,0.2 0.1,0.4 0.1,0.6 0,0.5 -0.2,0.9 -0.6,1.2 -0.4,0.3 -1,0.4 -1.8,0.4 -0.8,0 -1.4,-0.1 -1.8,-0.4 -0.4,-0.3 -0.6,-0.7 -0.6,-1.2 l -0.1,-0.1 0,0 z"
         id="path3411"
         inkscape:connector-curvature="0"
         style="fill:#231f20" /><path
         d="m 91.2,43.3 0,-3.9 -1.9,0 0,-1.1 5.2,0 0,1.1 -1.9,0 0,3.9 -1.4,0 z"
         id="path3413"
         inkscape:connector-curvature="0"
         style="fill:#231f20" /><path
         d="m 97.4,39.6 c 0.3,-0.3 0.6,-0.4 1.1,-0.4 0.5,0 0.9,0.1 1.2,0.4 0.3,0.3 0.4,0.7 0.4,1.3 0,0.5 -0.1,0.9 -0.4,1.2 -0.3,0.3 -0.7,0.4 -1.2,0.4 -0.5,0 -0.9,-0.1 -1.1,-0.4 -0.3,-0.3 -0.4,-0.7 -0.4,-1.2 0,-0.6 0.2,-1 0.4,-1.3 z m 3.4,3.1 c 0.5,-0.4 0.8,-1.1 0.8,-1.9 0,-0.8 -0.3,-1.5 -0.8,-1.9 -0.5,-0.4 -1.2,-0.7 -2.2,-0.7 -1,0 -1.7,0.2 -2.2,0.7 -0.5,0.5 -0.8,1.1 -0.8,1.9 0,0.8 0.3,1.5 0.8,1.9 0.5,0.5 1.2,0.7 2.2,0.7 0.9,0 1.7,-0.2 2.2,-0.7 z"
         id="path3415"
         inkscape:connector-curvature="0"
         style="fill:#231f20" /><path
         d="m 105.4,39.3 c 0.4,0 0.7,0 0.9,0.1 0.1,0.1 0.2,0.2 0.2,0.4 0,0.2 -0.1,0.4 -0.2,0.5 -0.2,0.1 -0.4,0.1 -0.9,0.1 l -0.9,0 0,-1.2 0.9,0 z m -0.8,4 0,-1.9 0.8,0 c 0.4,0 0.7,0 0.8,0.1 0.1,0.1 0.2,0.3 0.2,0.5 l 0.1,0.7 c 0,0 0,0 0,0.1 0,0.3 0.1,0.4 0.1,0.5 l 1.5,0 c -0.1,-0.3 -0.2,-0.7 -0.2,-1.1 -0.1,-0.4 -0.1,-0.7 -0.1,-0.8 -0.1,-0.2 -0.2,-0.3 -0.4,-0.4 -0.2,-0.1 -0.4,-0.1 -0.8,-0.1 0.5,-0.1 0.8,-0.2 1,-0.4 0.2,-0.2 0.3,-0.5 0.3,-0.8 0,-0.2 -0.1,-0.4 -0.2,-0.6 -0.1,-0.2 -0.3,-0.3 -0.5,-0.4 -0.2,-0.1 -0.3,-0.1 -0.5,-0.2 -0.2,0 -0.5,0 -0.9,0 l -2.7,0 0,5 1.5,-0.2 0,0 z"
         id="path3417"
         inkscape:connector-curvature="0"
         style="fill:#231f20" /><path
         d="m 111,43.3 0,-1.8 -2.3,-3.2 1.7,0 1.4,2.1 1.3,-2.1 1.5,0 -2.3,3.2 0,1.8 -1.3,0 z"
         id="path3419"
         inkscape:connector-curvature="0"
         style="fill:#231f20" /><path
         d="m 121.4,39.3 c 0.4,0 0.7,0 0.9,0.1 0.1,0.1 0.2,0.2 0.2,0.4 0,0.2 -0.1,0.4 -0.2,0.5 -0.2,0.1 -0.4,0.1 -0.9,0.1 l -0.9,0 0,-1.2 0.9,0 z m -0.9,4 0,-1.9 0.8,0 c 0.4,0 0.7,0 0.8,0.1 0.1,0.1 0.2,0.3 0.2,0.5 l 0.1,0.7 c 0,0 0,0 0,0.1 0,0.3 0.1,0.4 0.1,0.5 l 1.5,0 c -0.1,-0.3 -0.2,-0.7 -0.2,-1.1 -0.1,-0.4 -0.1,-0.7 -0.1,-0.8 -0.1,-0.2 -0.2,-0.3 -0.4,-0.4 -0.2,-0.1 -0.4,-0.1 -0.8,-0.1 0.5,-0.1 0.8,-0.2 1,-0.4 0.2,-0.2 0.3,-0.5 0.3,-0.8 0,-0.2 -0.1,-0.4 -0.2,-0.6 -0.1,-0.2 -0.3,-0.3 -0.5,-0.4 -0.2,-0.1 -0.3,-0.1 -0.5,-0.2 -0.2,0 -0.5,0 -0.9,0 l -2.7,0 0,5 1.5,-0.2 0,0 z"
         id="path3421"
         inkscape:connector-curvature="0"
         style="fill:#231f20" /><path
         d="m 125.6,43.3 0,-5 4.3,0 0,1.1 -2.9,0 0,0.9 2.7,0 0,1 -2.7,0 0,1 3,0 0,1.1 -4.4,0 0,-0.1 z"
         id="path3423"
         inkscape:connector-curvature="0"
         style="fill:#231f20" /><path
         d="m 133.7,39.3 c 0.4,0 0.7,0 0.8,0.1 0.1,0.1 0.2,0.3 0.2,0.5 0,0.2 -0.1,0.4 -0.2,0.5 -0.1,0.1 -0.4,0.1 -0.8,0.1 l -0.9,0 0,-1.3 0.9,0.1 0,0 z m -0.9,4 0,-1.8 0.8,0 0.1,0 c 0.5,0 0.9,0 1.1,-0.1 0.2,0 0.4,-0.1 0.6,-0.2 0.2,-0.1 0.4,-0.3 0.5,-0.5 0.1,-0.2 0.2,-0.5 0.2,-0.8 0,-0.3 -0.1,-0.6 -0.2,-0.8 -0.1,-0.2 -0.3,-0.4 -0.5,-0.5 -0.2,-0.1 -0.3,-0.1 -0.5,-0.2 -0.2,0 -0.5,-0.1 -0.9,-0.1 l -2.6,0 0,5 1.4,0 0,0 0,0 z"
         id="path3425"
         inkscape:connector-curvature="0"
         style="fill:#231f20" /><path
         d="m 139.1,39.6 c 0.3,-0.3 0.6,-0.4 1.1,-0.4 0.5,0 0.9,0.1 1.2,0.4 0.3,0.3 0.4,0.7 0.4,1.3 0,0.5 -0.1,0.9 -0.4,1.2 -0.3,0.3 -0.7,0.4 -1.2,0.4 -0.5,0 -0.9,-0.1 -1.1,-0.4 -0.3,-0.3 -0.4,-0.7 -0.4,-1.2 0,-0.5 0.2,-1 0.4,-1.3 z m 3.4,3.1 c 0.5,-0.4 0.8,-1.1 0.8,-1.9 0,-0.8 -0.3,-1.5 -0.8,-1.9 -0.5,-0.5 -1.2,-0.7 -2.2,-0.7 -1,0 -1.7,0.2 -2.2,0.7 -0.5,0.5 -0.8,1.1 -0.8,1.9 0,0.8 0.3,1.5 0.8,1.9 0.5,0.5 1.2,0.7 2.2,0.7 0.9,0 1.7,-0.2 2.2,-0.7 z"
         id="path3427"
         inkscape:connector-curvature="0"
         style="fill:#231f20" /><path
         d="m 147.1,39.3 c 0.4,0 0.7,0 0.9,0.1 0.1,0.1 0.2,0.2 0.2,0.4 0,0.2 -0.1,0.4 -0.2,0.5 -0.2,0.1 -0.4,0.1 -0.9,0.1 l -0.9,0 0,-1.2 0.9,0 z m -0.8,4 0,-1.9 0.8,0 c 0.4,0 0.7,0 0.8,0.1 0.1,0.1 0.2,0.3 0.2,0.5 l 0.1,0.7 c 0,0 0,0 0,0.1 0,0.3 0.1,0.4 0.1,0.5 l 1.5,0 c -0.1,-0.3 -0.2,-0.7 -0.2,-1.1 -0.1,-0.4 -0.1,-0.7 -0.1,-0.8 -0.1,-0.2 -0.2,-0.3 -0.4,-0.4 -0.2,-0.1 -0.4,-0.1 -0.8,-0.1 0.5,-0.1 0.8,-0.2 1,-0.4 0.2,-0.2 0.3,-0.5 0.3,-0.8 0,-0.2 -0.1,-0.4 -0.2,-0.6 -0.1,-0.2 -0.3,-0.3 -0.5,-0.4 -0.2,-0.1 -0.3,-0.1 -0.5,-0.2 -0.2,0 -0.5,0 -0.9,0 l -2.7,0 0,5 1.5,-0.2 0,0 0,0 z"
         id="path3429"
         inkscape:connector-curvature="0"
         style="fill:#231f20" /><path
         d="m 152.7,43.3 0,-3.9 -1.9,0 0,-1.1 5.2,0 0,1.1 -1.9,0 0,3.9 -1.4,0 z"
         id="path3431"
         inkscape:connector-curvature="0"
         style="fill:#231f20" /><path
         d="m 157.2,41.6 1.4,0 0,0.1 c 0,0.2 0.1,0.4 0.2,0.5 0.2,0.1 0.4,0.2 0.8,0.2 0.3,0 0.5,0 0.7,-0.1 0.2,-0.1 0.2,-0.2 0.2,-0.4 0,-0.3 -0.3,-0.4 -1,-0.6 -0.1,0 -0.2,0 -0.3,-0.1 -0.7,-0.1 -1.2,-0.3 -1.4,-0.5 -0.3,-0.2 -0.4,-0.5 -0.4,-0.9 0,-0.5 0.2,-0.9 0.6,-1.2 0.4,-0.3 1,-0.4 1.7,-0.4 0.7,0 1.3,0.1 1.6,0.4 0.3,0.2 0.5,0.6 0.6,1.1 l -1.3,0 0,0 c 0,-0.2 -0.1,-0.3 -0.2,-0.4 -0.1,-0.1 -0.4,-0.1 -0.6,-0.1 -0.3,0 -0.5,0 -0.6,0.1 -0.2,0.1 -0.2,0.2 -0.2,0.3 0,0.2 0.3,0.4 1,0.5 0.1,0 0.2,0 0.3,0.1 0,0 0,0 0.1,0 0.7,0.1 1.2,0.3 1.5,0.5 0.1,0.1 0.2,0.3 0.3,0.4 0.1,0.1 0.1,0.4 0.1,0.6 0,0.5 -0.2,0.9 -0.6,1.2 -0.4,0.3 -1,0.4 -1.8,0.4 -0.8,0 -1.4,-0.1 -1.8,-0.4 -0.4,-0.3 -0.6,-0.7 -0.6,-1.2 l -0.3,-0.1 0,0 0,0 z"
         id="path3433"
         inkscape:connector-curvature="0"
         style="fill:#231f20" /></g><path
       d="M 155.9,33.1 155.2,32 c -0.6,-1 -1.2,-2 -1.7,-2.9 -0.4,0.8 -1,1.9 -1.7,2.9 l -0.8,1.1 -5.4,0 5.2,-7.2 -5.5,-7.8 5.6,0 1,1.5 c 0.6,1 1.3,2 1.7,2.9 0.4,-0.8 1.1,-1.9 1.7,-2.9 l 1,-1.5 5.4,0 -5.5,7.7 5.1,7.3 -5.4,0 z"
       id="path3435"
       inkscape:connector-curvature="0"
       style="fill:#231f20" /><g
       id="g3437"><g
         id="g3439"><path
           d="m 172.5,9.4 c 0,0.6 -0.2,1.1 -0.6,1.5 -0.4,0.4 -0.9,0.6 -1.5,0.6 -0.6,0 -1.1,-0.2 -1.5,-0.6 -0.4,-0.4 -0.6,-0.9 -0.6,-1.5 0,-0.6 0.2,-1.1 0.6,-1.5 0.4,-0.4 0.9,-0.6 1.5,-0.6 0.6,0 1.1,0.2 1.5,0.6 0.4,0.4 0.6,0.9 0.6,1.5 z m -0.3,0 c 0,-0.5 -0.2,-0.9 -0.5,-1.3 -0.3,-0.4 -0.7,-0.5 -1.2,-0.5 -0.5,0 -0.9,0.2 -1.3,0.5 -0.4,0.3 -0.5,0.8 -0.5,1.3 0,0.5 0.2,0.9 0.5,1.3 0.3,0.4 0.8,0.5 1.2,0.5 0.5,0 0.9,-0.2 1.2,-0.5 0.4,-0.4 0.6,-0.8 0.6,-1.3 z m -0.6,-0.5 c 0,0.2 -0.1,0.4 -0.2,0.6 -0.2,0.1 -0.4,0.2 -0.6,0.2 l 0.8,1 -0.5,0 -0.8,-1 -0.4,0 0,1 -0.4,0 0,-2.6 1.2,0 c 0.3,0 0.5,0.1 0.6,0.2 0.2,0.2 0.3,0.3 0.3,0.6 z m -0.4,0 c 0,-0.3 -0.2,-0.4 -0.6,-0.4 l -0.7,0 0,0.8 0.8,0 c 0.3,0 0.5,-0.2 0.5,-0.4 z"
           id="path3441"
           inkscape:connector-curvature="0"
           style="fill:#231f20" /><path
           d="m 169,7.9 c -0.4,0.4 -0.6,0.9 -0.6,1.5 0,0.6 0.2,1.1 0.6,1.5 0.4,0.4 0.9,0.6 1.5,0.6 0.6,0 1.1,-0.2 1.5,-0.6 0.4,-0.4 0.6,-0.9 0.6,-1.5 0,-0.6 -0.2,-1.1 -0.6,-1.5 -0.4,-0.4 -0.9,-0.6 -1.5,-0.6 -0.6,0 -1.1,0.2 -1.5,0.6 z m 0,3 c -0.4,-0.4 -0.6,-0.9 -0.6,-1.5 0,-0.6 0.2,-1.1 0.6,-1.5 0.4,-0.4 0.9,-0.6 1.4,-0.6 0.6,0 1,0.2 1.4,0.6 0.4,0.4 0.6,0.9 0.6,1.5 0,0.6 -0.2,1.1 -0.6,1.5 -0.4,0.4 -0.9,0.6 -1.4,0.6 -0.5,0 -1,-0.2 -1.4,-0.6 z"
           id="path3443"
           inkscape:connector-curvature="0"
           style="fill:#231f20" /><path
           d="m 169.2,8.1 c -0.3,0.4 -0.5,0.8 -0.5,1.3 0,0.5 0.2,0.9 0.5,1.3 0.3,0.4 0.8,0.5 1.3,0.5 0.5,0 0.9,-0.2 1.2,-0.5 0.3,-0.4 0.5,-0.8 0.5,-1.3 0,-0.5 -0.2,-0.9 -0.5,-1.3 -0.3,-0.4 -0.8,-0.5 -1.2,-0.5 -0.5,0 -1,0.2 -1.3,0.5 z m 0,2.6 c -0.3,-0.3 -0.5,-0.8 -0.5,-1.2 0,-0.5 0.2,-0.9 0.5,-1.3 0.3,-0.3 0.7,-0.5 1.2,-0.5 0.4,0 0.8,0.2 1.2,0.5 0.3,0.4 0.5,0.8 0.5,1.2 0,0.5 -0.2,0.9 -0.5,1.3 -0.3,0.3 -0.7,0.5 -1.2,0.5 -0.4,0 -0.8,-0.2 -1.2,-0.5 z"
           id="path3445"
           inkscape:connector-curvature="0"
           style="fill:#231f20" /><path
           d="m 169.5,8.1 0,2.6 0.4,0 c 0,0 0,-0.9 0,-1 0.1,0 0.4,0 0.4,0 l 0.7,1 0.5,0 0.1,0 c 0,0 -0.7,-0.9 -0.8,-1 0.2,0 0.4,-0.1 0.5,-0.2 0.2,-0.1 0.3,-0.3 0.3,-0.6 0,-0.2 -0.1,-0.4 -0.2,-0.5 -0.2,-0.1 -0.4,-0.2 -0.7,-0.2 l -1.2,0 0,-0.1 z m 1.3,0.1 c 0.3,0 0.5,0.1 0.6,0.2 0.1,0.1 0.2,0.3 0.2,0.5 0,0.2 -0.1,0.4 -0.2,0.5 -0.2,0.1 -0.3,0.2 -0.5,0.2 l -0.1,0 c 0,0 0.7,0.9 0.8,1 -0.1,0 -0.4,0 -0.4,0 l -0.7,-1 -0.5,0 0,0 c 0,0 0,0.9 0,1 -0.1,0 -0.2,0 -0.3,0 0,-0.1 0,-2.4 0,-2.4 -0.1,0 1.1,0 1.1,0 z"
           id="path3447"
           inkscape:connector-curvature="0"
           style="fill:#231f20" /><path
           d="m 169.9,8.4 0,0.9 0.8,0 c 0.4,0 0.6,-0.2 0.6,-0.5 0,-0.1 -0.1,-0.2 -0.2,-0.3 -0.1,-0.1 -0.3,-0.1 -0.5,-0.1 l -0.7,0 z m 0.7,0.1 c 0.2,0 0.3,0 0.4,0.1 0.1,0.1 0.1,0.1 0.1,0.3 0,0.3 -0.2,0.4 -0.5,0.4 0,0 -0.7,0 -0.7,0 0,-0.1 0,-0.7 0,-0.7 0.1,-0.1 0.7,-0.1 0.7,-0.1 z"
           id="path3449"
           inkscape:connector-curvature="0"
           style="fill:#231f20" /></g></g></g><rect
     x="-1.8"
     y="-2.2"
     width="154.8"
     height="40"
     id="rect3451"
     style="fill:none" /></svg>